<svg xmlns="http://www.w3.org/2000/svg" width="600" height="600" viewBox="0 0 600 600"><rect width="100%" height="100%" fill="#DDDDDD"/><path fill="#999999" d="M136.23 303.76q.37 0 .66.29l1.8 1.96q-1.49 1.85-3.68 2.84-2.18.98-5.24.98-2.74 0-4.92-.93-2.19-.94-3.73-2.6-1.55-1.67-2.38-3.98-.82-2.31-.82-5.05 0-2.77.88-5.08.89-2.3 2.49-3.97 1.61-1.66 3.84-2.59 2.23-.92 4.93-.92 2.68 0 4.77.88 2.08.88 3.54 2.31l-1.53 2.13q-.13.2-.35.35-.21.16-.58.16-.26 0-.53-.15-.27-.14-.6-.35-.32-.22-.74-.47-.43-.26-.99-.47-.56-.21-1.3-.36-.74-.14-1.71-.14-1.65 0-3.02.59-1.36.58-2.35 1.7-.99 1.11-1.53 2.72-.54 1.6-.54 3.66 0 2.07.58 3.69.59 1.61 1.59 2.72 1 1.1 2.36 1.69 1.36.59 2.93.59.93 0 1.69-.11.76-.1 1.39-.32.64-.22 1.21-.57t1.13-.86q.17-.15.36-.24.19-.1.39-.1Zm14.16 1.3v-2.95q-1.82.09-3.06.32t-1.99.58q-.75.36-1.07.84-.32.47-.32 1.03 0 1.11.65 1.59.66.47 1.71.47 1.29 0 2.24-.47.94-.46 1.84-1.41Zm-8.87-9.17-.75-1.34q3.01-2.76 7.24-2.76 1.53 0 2.74.51 1.2.5 2.04 1.39.83.89 1.26 2.13.44 1.24.44 2.72v11.02h-1.91q-.59 0-.91-.18-.33-.18-.51-.72l-.38-1.26q-.66.6-1.29 1.05-.63.45-1.31.75-.68.31-1.45.47-.78.16-1.71.16-1.11 0-2.04-.3-.94-.29-1.62-.89-.68-.59-1.05-1.48-.37-.88-.37-2.05 0-.67.22-1.32.22-.66.72-1.25.5-.6 1.3-1.12.8-.53 1.96-.92 1.17-.39 2.71-.64 1.55-.25 3.54-.3v-1.02q0-1.75-.75-2.59-.75-.84-2.16-.84-1.02 0-1.69.24-.67.24-1.18.53-.51.3-.93.54-.41.24-.92.24-.44 0-.75-.23t-.49-.54Zm22.73 13.94q-2.28 0-3.5-1.28-1.21-1.29-1.21-3.55v-9.74h-1.79q-.34 0-.58-.22-.23-.22-.23-.66v-1.67l2.8-.46.88-4.76q.09-.34.33-.52.24-.19.61-.19h2.18v5.49h4.65v2.99h-4.65v9.45q0 .82.39 1.28.4.46 1.1.46.39 0 .66-.09.26-.1.45-.2.2-.1.35-.2.16-.09.31-.09.19 0 .31.09.11.1.25.28l1.26 2.04q-.92.77-2.11 1.16-1.19.39-2.46.39Zm20.34-24.85v24.58H180v-24.58h4.59Zm9.03 24.58h-4.2v-17.44h2.57q.82 0 1.07.76l.27 1.29q.46-.51.96-.93.5-.43 1.07-.73.57-.31 1.23-.49.65-.17 1.43-.17 1.65 0 2.72.89 1.06.89 1.59 2.37.4-.87 1.02-1.49.61-.62 1.34-1.01.73-.39 1.55-.58.83-.18 1.66-.18 1.45 0 2.57.44 1.12.44 1.89 1.29.76.85 1.16 2.07.4 1.23.4 2.81v11.1h-4.2v-11.1q0-1.67-.73-2.51-.73-.84-2.14-.84-.65 0-1.2.22-.55.22-.97.64-.42.41-.65 1.04-.24.63-.24 1.45v11.1h-4.22v-11.1q0-1.75-.7-2.55-.71-.8-2.07-.8-.92 0-1.71.45-.79.45-1.47 1.23v12.77Zm33.49-4.5v-2.95q-1.82.09-3.06.32t-1.99.58q-.75.36-1.07.84-.32.47-.32 1.03 0 1.11.65 1.59.66.47 1.71.47 1.29 0 2.24-.47.94-.46 1.84-1.41Zm-8.87-9.17-.75-1.34q3.01-2.76 7.24-2.76 1.53 0 2.74.51 1.21.5 2.04 1.39.83.89 1.26 2.13.44 1.24.44 2.72v11.02h-1.91q-.59 0-.91-.18-.33-.18-.51-.72l-.38-1.26q-.66.6-1.29 1.05-.63.45-1.31.75-.68.31-1.45.47-.78.16-1.71.16-1.11 0-2.04-.3-.94-.29-1.62-.89-.68-.59-1.05-1.48-.37-.88-.37-2.05 0-.67.22-1.32.22-.66.72-1.25.5-.6 1.3-1.12.8-.53 1.96-.92 1.17-.39 2.72-.64 1.54-.25 3.53-.3v-1.02q0-1.75-.75-2.59-.74-.84-2.16-.84-1.02 0-1.69.24-.67.24-1.18.53-.51.3-.93.54-.41.24-.92.24-.44 0-.75-.23t-.49-.54Zm23.29 4.52q.78 0 1.36-.21.58-.21.96-.59.38-.37.58-.9.19-.52.19-1.15 0-1.29-.77-2.05-.78-.76-2.32-.76-1.55 0-2.32.76-.78.76-.78 2.05 0 .61.2 1.14.19.52.58.91.38.38.97.59.58.21 1.35.21Zm4.74 9.93q0-.51-.31-.83-.3-.32-.83-.5t-1.23-.27q-.71-.08-1.5-.12-.79-.05-1.63-.08-.84-.03-1.64-.14-.7.39-1.13.92-.43.53-.43 1.23 0 .46.23.85.23.4.73.69.5.29 1.3.45.8.17 1.95.17 1.18 0 2.03-.18.85-.18 1.4-.5.55-.31.81-.74.25-.44.25-.95Zm-.83-17.63h5.01v1.57q0 .74-.9.91l-1.56.29q.35.9.35 1.98 0 1.29-.51 2.33-.52 1.05-1.44 1.78-.92.73-2.17 1.13-1.25.4-2.69.4-.51 0-.99-.05-.47-.05-.93-.14-.82.5-.82 1.11 0 .52.48.77.49.25 1.29.35.8.1 1.82.13 1.02.02 2.09.11 1.07.08 2.09.3 1.02.21 1.82.67.8.46 1.28 1.25.49.79.49 2.03 0 1.15-.57 2.24-.57 1.09-1.65 1.94-1.08.85-2.65 1.37-1.58.52-3.58.52-1.97 0-3.44-.39-1.46-.38-2.43-1.02-.97-.63-1.44-1.47-.48-.83-.48-1.73 0-1.22.74-2.05.74-.82 2.03-1.32-.69-.35-1.1-.95-.41-.59-.41-1.56 0-.39.14-.81.15-.42.43-.82.28-.41.7-.78.43-.36 1.01-.65-1.33-.72-2.09-1.91-.75-1.19-.75-2.78 0-1.3.52-2.34.52-1.05 1.44-1.79.93-.74 2.19-1.13 1.27-.39 2.77-.39 1.12 0 2.11.23.98.23 1.8.67Zm10.98 6.12h7.92q0-.81-.23-1.54-.23-.72-.69-1.26-.46-.55-1.16-.86-.71-.32-1.64-.32-1.82 0-2.87 1.04-1.04 1.04-1.33 2.94Zm10.71 2.54h-10.8q.11 1.34.48 2.32.37.97.99 1.61.61.64 1.45.95.84.32 1.86.32t1.76-.24q.74-.24 1.29-.53.56-.29.97-.52.42-.24.81-.24.53 0 .78.39l1.21 1.53q-.7.81-1.57 1.37-.86.55-1.81.88-.94.33-1.92.47-.97.14-1.89.14-1.82 0-3.39-.61-1.56-.6-2.72-1.78-1.15-1.19-1.81-2.93-.67-1.74-.67-4.04 0-1.78.58-3.35.58-1.58 1.66-2.74 1.08-1.16 2.63-1.84 1.56-.68 3.51-.68 1.65 0 3.05.52 1.39.53 2.39 1.54 1.01 1.01 1.58 2.48.57 1.47.57 3.36 0 .95-.21 1.28-.2.34-.78.34Zm29.75-16.39h4.03v24.58h-2.35q-.54 0-.91-.18-.36-.18-.7-.6l-12.84-16.39q.1 1.12.1 2.07v15.1h-4.02v-24.58h2.39q.29 0 .5.02.22.03.38.11.16.07.31.22.16.14.34.38L297 302.16q-.05-.59-.09-1.17-.03-.58-.03-1.07v-14.94Zm16.56 6.87q1.94 0 3.52.62 1.59.63 2.72 1.79 1.14 1.16 1.75 2.82.61 1.67.61 3.72 0 2.08-.61 3.74-.61 1.67-1.75 2.84-1.13 1.18-2.72 1.81-1.58.63-3.52.63-1.96 0-3.56-.63-1.59-.63-2.72-1.81-1.13-1.17-1.76-2.84-.62-1.66-.62-3.74 0-2.05.62-3.72.63-1.66 1.76-2.82t2.72-1.79q1.6-.62 3.56-.62Zm0 14.73q2.17 0 3.22-1.46 1.04-1.46 1.04-4.28 0-2.82-1.04-4.3-1.05-1.48-3.22-1.48-2.21 0-3.28 1.49-1.06 1.48-1.06 4.29 0 2.8 1.06 4.27 1.07 1.47 3.28 1.47Zm17.63 3.25q-2.28 0-3.5-1.28-1.21-1.29-1.21-3.55v-9.74h-1.79q-.34 0-.58-.22-.23-.22-.23-.66v-1.67l2.8-.46.89-4.76q.08-.34.32-.52.24-.19.61-.19h2.18v5.49h4.65v2.99h-4.65v9.45q0 .82.4 1.28.4.46 1.09.46.39 0 .66-.09.26-.1.46-.2.19-.1.34-.2.16-.09.31-.09.19 0 .31.09.12.1.25.28l1.26 2.04q-.92.77-2.11 1.16-1.19.39-2.46.39Zm20.92-9.55h7.82l-2.99-8.18q-.22-.54-.46-1.29-.24-.75-.47-1.62-.22.87-.46 1.63-.24.75-.46 1.31l-2.98 8.15Zm6.24-15.3 9.66 24.58h-3.54q-.59 0-.97-.3-.37-.3-.56-.74l-1.83-5.01H350.8l-1.83 5.01q-.14.39-.53.72-.39.32-.97.32h-3.57l9.67-24.58h4.66Zm23.96 7.14h3.31l-6.92 17.44h-3.81l-6.92-17.44h3.47q.48 0 .79.22.32.22.42.56l3.37 9.32q.27.81.47 1.59.21.79.36 1.57.17-.78.37-1.57.21-.78.5-1.59l3.43-9.32q.12-.34.42-.56.31-.22.74-.22Zm14.75 12.94v-2.95q-1.82.09-3.06.32t-1.99.58q-.75.36-1.07.84-.32.47-.32 1.03 0 1.11.65 1.59.66.47 1.71.47 1.29 0 2.24-.47.94-.46 1.84-1.41Zm-8.87-9.17-.75-1.34q3.01-2.76 7.24-2.76 1.53 0 2.74.51 1.21.5 2.04 1.39.83.89 1.26 2.13.44 1.24.44 2.72v11.02h-1.91q-.59 0-.91-.18-.33-.18-.51-.72l-.38-1.26q-.66.6-1.29 1.05-.63.45-1.31.75-.68.31-1.45.47-.78.16-1.71.16-1.11 0-2.04-.3-.94-.29-1.62-.89-.68-.59-1.05-1.48-.37-.88-.37-2.05 0-.67.22-1.32.22-.66.72-1.25.5-.6 1.3-1.12.8-.53 1.96-.92 1.17-.39 2.72-.64 1.54-.25 3.53-.3v-1.02q0-1.75-.75-2.59-.74-.84-2.16-.84-1.02 0-1.69.24-.67.24-1.18.53-.51.3-.93.54-.41.24-.92.24-.44 0-.75-.23t-.49-.54Zm17.05-3.77h4.21v17.44h-4.21v-17.44Zm4.79-5.09q0 .55-.22 1.02-.22.48-.59.84-.36.35-.85.57-.5.21-1.06.21-.54 0-1.03-.21-.48-.22-.84-.57-.35-.36-.57-.84-.21-.47-.21-1.02 0-.56.21-1.05.22-.49.57-.85.36-.36.84-.57.49-.21 1.03-.21.56 0 1.06.21.49.21.85.57.37.36.59.85.22.49.22 1.05Zm3.76-2.73h4.2v25.26h-4.2V284.3Zm17.61 20.76v-2.95q-1.82.09-3.06.32t-1.99.58q-.75.36-1.07.84-.32.47-.32 1.03 0 1.11.65 1.59.66.47 1.71.47 1.29 0 2.24-.47.94-.46 1.84-1.41Zm-8.87-9.17-.75-1.34q3.01-2.76 7.24-2.76 1.53 0 2.74.51 1.21.5 2.04 1.39.83.89 1.26 2.13.44 1.24.44 2.72v11.02h-1.91q-.59 0-.91-.18-.33-.18-.51-.72l-.38-1.26q-.66.6-1.29 1.05-.63.45-1.31.75-.68.31-1.45.47-.78.16-1.71.16-1.11 0-2.04-.3-.94-.29-1.62-.89-.68-.59-1.05-1.48-.37-.88-.37-2.05 0-.67.22-1.32.22-.66.72-1.25.5-.6 1.3-1.12.8-.53 1.96-.92 1.17-.39 2.72-.64 1.54-.25 3.53-.3v-1.02q0-1.75-.75-2.59-.74-.84-2.16-.84-1.02 0-1.69.24-.67.24-1.18.53-.51.3-.93.54-.41.24-.92.24-.44 0-.75-.23t-.49-.54Zm21.11 1.33v7.82q.72.86 1.56 1.22.84.36 1.77.36.97 0 1.75-.35.77-.35 1.31-1.09.55-.74.84-1.88.29-1.15.29-2.75 0-2.87-.96-4.16-.95-1.28-2.73-1.28-1.21 0-2.11.55-.9.55-1.72 1.56Zm0-12.92v9.96q1.06-1.11 2.34-1.76 1.28-.65 2.93-.65 1.51 0 2.73.59 1.22.6 2.07 1.71.86 1.11 1.32 2.69.46 1.58.46 3.56 0 2.12-.53 3.86-.52 1.73-1.5 2.96-.98 1.24-2.36 1.91-1.37.69-3.06.69-.81 0-1.47-.17-.67-.16-1.23-.45-.56-.29-1.03-.7-.46-.42-.89-.93l-.19 1.17q-.1.45-.35.63-.24.19-.67.19h-2.77V284.3h4.2Zm15.15 0h4.2v25.26h-4.2V284.3Zm11.71 14.53h7.92q0-.81-.23-1.54-.23-.72-.68-1.26-.46-.55-1.17-.86-.7-.32-1.64-.32-1.82 0-2.86 1.04-1.05 1.04-1.34 2.94Zm10.71 2.54H470.3q.1 1.34.47 2.32.38.97.99 1.61.61.64 1.45.95.84.32 1.86.32t1.76-.24q.74-.24 1.3-.53.55-.29.96-.52.42-.24.81-.24.53 0 .78.39l1.21 1.53q-.7.81-1.56 1.37-.87.55-1.81.88-.95.33-1.92.47-.98.14-1.9.14-1.82 0-3.38-.61-1.57-.6-2.72-1.78-1.16-1.19-1.82-2.93-.67-1.74-.67-4.04 0-1.78.58-3.35.58-1.58 1.66-2.74 1.08-1.16 2.64-1.84 1.55-.68 3.51-.68 1.64 0 3.04.52 1.39.53 2.4 1.54 1 1.01 1.57 2.48.57 1.47.57 3.36 0 .95-.21 1.28-.2.34-.78.34Z"/></svg>